<?xml version="1.0" encoding="UTF-8" standalone="no"?>
<svg width="200px" height="31px" viewBox="0 0 200 31" version="1.1" xmlns="http://www.w3.org/2000/svg" xmlns:xlink="http://www.w3.org/1999/xlink">
    <!-- Generator: Sketch 3.8.3 (29802) - http://www.bohemiancoding.com/sketch -->
    <title>Artboard</title>
    <desc>Created with Sketch.</desc>
    <defs>
        <polygon id="path-1" points="161.533512 27.528 0 27.528 0 14.0178 0 0.5076 161.533512 0.5076"></polygon>
        <polygon id="path-3" points="0.889577381 27.528 85.4799762 27.528 85.4799762 0.9156 0.889577381 0.9156 0.889577381 27.528"></polygon>
    </defs>
    <g id="Page-1" stroke="none" stroke-width="1" fill="none" fill-rule="evenodd">
        <g id="Artboard">
            <g id="CR_logo_TM">
                <path d="M194.852982,18.4928 L193.65069,11.5724 C193.64003,11.5184 193.430369,10.448 192.616601,9.4508 C192.234,8.9516 191.767298,8.5868 191.260321,8.324 C190.813756,8.0816 190.287827,7.9004 189.669506,7.808 C189.381667,7.7564 188.376006,7.6688 188.376006,7.6688 C186.173976,7.52 183.440095,7.6244 180.45628,7.9556 L180.45628,7.9652 C178.654619,8.15 176.778333,8.414 174.88428,8.7524 C169.658161,9.6848 164.833595,11.0828 161.556018,12.5924 L161.150911,12.782 C159.703423,13.4324 158.099577,14.6516 158.022583,16.8668 C159.908345,17.4188 161.422167,18.5108 162.227643,19.9808 C162.366232,20.252 162.426643,20.5736 162.426643,20.5736 C162.44678,20.69 162.451518,20.7656 162.451518,20.84 C162.451518,21.7976 161.685131,22.574 160.74225,22.574 C160.083655,22.574 159.477179,22.1864 159.195262,21.5828 C159.056673,21.356 158.861226,21.1448 158.621952,20.9504 L159.307792,24.9008 C159.335036,25.0484 160.036274,28.6328 163.94994,28.7888 C167.588798,29.0996 172.694095,28.736 177.986548,27.7928 C183.158179,26.87 188.01828,25.4696 191.310071,23.954 C193.25269,23.2196 195.414446,21.6956 194.852982,18.4928" id="Fill-1" fill="#9FA4A5"></path>
                <path d="M163.888345,24.3056 C163.807798,24.3176 163.745018,24.2732 163.731988,24.1928 L163.437042,22.4852 C163.420458,22.4036 163.464286,22.3388 163.544833,22.3268 L165.218565,22.0268 C165.297929,22.0148 165.363077,22.0616 165.376107,22.1384 L165.669869,23.8472 C165.687637,23.9276 165.64144,23.9912 165.560893,24.0068 L163.888345,24.3056" id="Fill-3" fill="#FFFFFF"></path>
                <path d="M170.35703,23.2916 C168.147893,23.6864 167.122095,22.5044 166.700405,20.0876 C166.29056,17.7224 166.802274,16.1132 169.023256,15.7148 C169.658161,15.6008 170.211333,15.5864 170.527601,15.644 C170.571429,15.6512 170.598673,15.656 170.610518,15.7268 L170.759768,16.9112 C170.769244,16.9532 170.737262,17.0012 170.663821,16.9856 C170.38072,16.964 169.963768,16.9712 169.589458,17.0384 C168.470083,17.2376 168.22844,17.8568 168.563661,19.7696 C168.870452,21.5444 169.290958,22.0304 170.436393,21.8264 C170.785827,21.764 171.181458,21.6392 171.439685,21.5216 C171.489435,21.4964 171.558137,21.4712 171.581827,21.5348 L171.866113,22.6988 C171.892173,22.7648 171.868482,22.7948 171.832946,22.8296 C171.463375,23.0216 170.910202,23.1932 170.35703,23.2916" id="Fill-4" fill="#FFFFFF"></path>
                <path d="M174.801363,20.78 C175.013393,20.9504 175.258589,21.0068 175.835452,20.9 C176.458512,20.7932 176.668173,20.6552 176.796101,20.4236 C177.0105,20.0612 176.991548,19.1504 176.816238,18.1544 C176.642113,17.144 176.37678,16.4168 176.048667,16.1348 C175.852036,15.962 175.610393,15.9188 175.014577,16.0232 C174.411655,16.1336 174.196071,16.2584 174.052744,16.4924 C173.844268,16.868 173.8265,17.6456 174.00181,18.6548 C174.173565,19.652 174.477988,20.5136 174.801363,20.78 L174.801363,20.78 Z M178.29097,21.1112 C177.881125,21.722 177.207131,22.0688 176.074726,22.2692 C174.941137,22.4732 174.232792,22.3748 173.655929,21.9416 C173.032869,21.4604 172.44653,20.3528 172.21081,18.9872 C171.970351,17.612 172.146845,16.4672 172.587488,15.8108 C172.983119,15.1916 173.678435,14.8832 174.783595,14.6852 C175.927845,14.48 176.635006,14.5532 177.224899,14.9852 C177.840851,15.464 178.371518,16.4672 178.611976,17.846 C178.850065,19.2128 178.705554,20.4464 178.29097,21.1112 L178.29097,21.1112 Z" id="Fill-5" fill="#FFFFFF"></path>
                <path d="M186.760315,20.078 C186.776899,20.1608 186.729518,20.2232 186.650155,20.2412 L185.152917,20.5064 C185.07,20.522 185.009589,20.4764 184.99419,20.3936 L184.105798,15.2864 C183.995637,14.6456 183.532488,14.5484 182.817036,14.6744 C182.468786,14.7344 182.026958,14.8436 181.806637,14.9384 C181.716613,14.9852 181.685815,15.0308 181.70003,15.1136 L182.691476,20.8076 C182.703321,20.8892 182.659494,20.9504 182.578946,20.9672 L181.084077,21.2348 C181.002345,21.2468 180.938381,21.2036 180.921798,21.122 L179.726613,14.2412 C179.711214,14.1584 179.758595,14.108 179.836774,14.0792 C180.381655,13.8548 181.71306,13.448 182.631065,13.286 C183.357179,13.1528 184.166208,13.0808 184.647125,13.2776 C184.701613,13.28 184.756101,13.2704 184.815327,13.232 C185.513012,12.8384 186.297167,12.6296 186.930887,12.5156 C189.006173,12.1472 189.840077,12.9416 190.113702,14.5232 L190.949976,19.3292 C190.965375,19.4132 190.921548,19.4756 190.842185,19.4924 L189.330732,19.7624 C189.250185,19.7744 189.183851,19.7312 189.172006,19.6496 L188.357054,14.9648 C188.198327,14.0516 187.750577,13.7936 186.861,13.9508 C186.537625,14.0096 186.125411,14.1128 185.89206,14.21 C185.800851,14.2532 185.752286,14.3024 185.768869,14.3852 L186.760315,20.078" id="Fill-6" fill="#FFFFFF"></path>
                <path d="M147.29672,19.5008 C148.124702,18.6548 149.175375,17.9588 150.367006,17.4404 C150.157345,17.2988 149.938208,17.1536 149.706042,17.0012 C146.730518,15.1328 146.087321,14.7128 146.087321,13.3736 C146.087321,11.7344 146.879768,11.5808 149.255923,11.5808 C150.346869,11.5808 151.964929,11.7728 153.098518,11.9624 C153.250137,12.002 153.361482,11.8868 153.361482,11.81 L153.587726,8.4128 C153.587726,8.222 153.513101,8.1836 153.399387,8.144 C152.232631,7.9148 150.159714,7.724 148.349762,7.724 C143.450571,7.724 141.189315,9.176 141.189315,13.49 C141.189315,16.0472 142.244726,17.1164 145.297244,19.1792 C145.84331,19.5584 146.311196,19.8836 146.709196,20.1776 C146.889244,19.946 147.081137,19.7192 147.29672,19.5008" id="Fill-7" fill="#EE9E3F"></path>
                <path d="M154.906101,27.134 C154.553113,27.1988 154.195387,27.2408 153.842399,27.2648 C153.382804,27.9572 152.802387,28.4648 152.162744,28.838 C152.515732,28.8752 152.878196,28.8968 153.251321,28.8968 C153.888595,28.8968 154.541268,28.838 155.18328,28.724 C156.676964,28.4576 158.053381,27.9008 159.18697,27.1268 C158.82806,26.588 158.599446,26.0648 158.459673,25.6688 C157.488363,26.378 156.260012,26.8928 154.906101,27.134" id="Fill-8" fill="#9FA4A5"></path>
                <g id="Group-13" transform="translate(0.000000, 1.400000)">
                    <mask id="mask-2" fill="white">
                        <use xlink:href="#path-1"></use>
                    </mask>
                    <g id="Clip-10"></g>
                    <path d="M161.426905,19.032 C161.428089,19.032 161.424536,19.0344 161.426905,19.032 C160.415321,17.19 158.014292,15.9852 155.102732,15.9852 C154.461905,15.9852 153.811601,16.044 153.166036,16.164 C148.955054,16.914 146.023357,19.7988 146.343179,22.8096 C147.466107,22.7928 147.80725,22.7124 147.918595,22.4796 C147.84397,20.43 150.266321,18.3168 153.445583,17.7504 C153.99994,17.6508 154.556667,17.598 155.102732,17.598 C157.360435,17.598 159.247381,18.4728 159.997185,19.7676 C160.12156,20.0568 160.402292,20.256 160.732774,20.256 C161.175786,20.256 161.533512,19.8924 161.533512,19.4436 C161.533512,19.296 161.496792,19.1544 161.426905,19.032" id="Fill-9" fill="#9FA4A5" mask="url(#mask-2)"></path>
                    <path d="M15.3087857,22.9392 C15.2696964,22.7052 15.001994,22.7052 14.8112857,22.7436 C13.8565595,23.0148 12.215994,23.2476 10.8040417,23.2476 C6.4130119,23.2476 5.42275,20.9268 5.42275,14.2752 C5.42275,7.1592 6.4130119,4.8396 10.8040417,4.8396 C12.2918036,4.8396 13.8956488,5.0712 14.8894643,5.3796 C15.0801726,5.4564 15.2696964,5.3028 15.2696964,5.1864 L15.4604048,1.5144 C15.4604048,1.2804 15.3466905,1.2432 15.1938869,1.164 C14.1621667,0.7788 12.2550833,0.5076 10.0376548,0.5076 C2.59766071,0.5076 0,5.8056 0,14.2368 C0,22.8216 2.59766071,27.5784 10.0376548,27.5784 C12.2550833,27.5784 14.0875417,27.2664 15.4225,26.844 C15.5385833,26.8068 15.6155774,26.61 15.5764881,26.3772 L15.3087857,22.9392" id="Fill-11" fill="#E0683E" mask="url(#mask-2)"></path>
                    <path d="M27.683506,23.8644 C27.683506,23.9808 27.6444167,24.06 27.4158036,24.1344 C26.9194881,24.252 25.8877679,24.33 25.0112202,24.33 C21.9966071,24.33 21.3083988,24.0192 21.3083988,21.2724 C21.3083988,18.4884 22.1482262,17.9856 24.897506,17.9856 L27.4537083,17.9856 C27.6076964,17.9856 27.683506,18.0672 27.683506,18.2208 L27.683506,23.8644 L27.683506,23.8644 Z M24.972131,6.1164 C22.4159286,6.1164 19.7412738,6.4224 18.2926012,6.8484 C18.0651726,6.9264 18.0248988,7.1592 18.0651726,7.3908 L18.3316905,10.3692 C18.3695952,10.602 18.6763869,10.602 18.902631,10.5612 C20.1250595,10.3692 22.263125,10.1748 23.6383571,10.1748 C26.6150655,10.1748 27.683506,10.7172 27.683506,13.0392 L27.683506,14.5824 C27.683506,14.736 27.6076964,14.7756 27.4537083,14.8164 L22.9489643,15.3948 C17.3390595,16.0932 16.4613274,17.8692 16.4613274,21.8196 C16.4613274,26.2644 18.5223988,27.5784 25.3938214,27.5784 C28.0293869,27.5784 30.7372083,27.3072 32.0733512,26.8812 C32.4938571,26.724 32.5696667,26.5332 32.5696667,26.3004 L32.5696667,12.2604 C32.5696667,7.7388 29.7066726,6.1164 24.972131,6.1164 L24.972131,6.1164 Z" id="Fill-12" fill="#E0683E" mask="url(#mask-2)"></path>
                </g>
                <path d="M45.4821607,7.67 C44.4528095,7.5524 43.6485179,7.5164 42.389369,7.5164 C39.9456964,7.5164 37.1229762,7.9004 35.2147083,8.3264 C34.9837262,8.3636 34.8309226,8.4812 34.8309226,8.714 L34.8309226,28.2068 C34.8309226,28.4372 34.9837262,28.5884 35.2147083,28.5884 L39.4138452,28.5884 C39.677994,28.628 39.8319821,28.4744 39.8319821,28.2068 L39.8319821,12.236 C39.8319821,12.038 39.8687024,11.924 40.0996845,11.8064 C40.7085298,11.5748 41.7011607,11.498 42.3135595,11.498 C43.3808155,11.498 44.3355417,11.5748 45.2523631,11.7296 C45.4430714,11.7692 45.5224345,11.6528 45.5224345,11.5364 L45.7095893,7.9784 C45.7095893,7.784 45.6716845,7.706 45.4821607,7.67" id="Fill-14" fill="#E0683E"></path>
                <g id="Group-21" transform="translate(46.196429, 1.400000)">
                    <mask id="mask-4" fill="white">
                        <use xlink:href="#path-3"></use>
                    </mask>
                    <g id="Clip-16"></g>
                    <path d="M8.10569643,13.794 L6.23414881,13.794 C6.04344048,13.7556 5.96763095,13.6776 5.96763095,13.4868 L5.96763095,4.8984 C5.96763095,4.7436 6.04344048,4.6668 6.46513095,4.6668 L8.10569643,4.6668 C11.539631,4.6668 12.4576369,5.5572 12.4576369,9.0372 C12.4576369,12.4776 11.3868274,13.794 8.10569643,13.794 L8.10569643,13.794 Z M14.6324226,17.352 C14.2131012,16.656 14.0235774,16.2312 14.0235774,15.8424 C14.0235774,15.6888 14.1361071,15.5352 14.404994,15.3024 C17.037006,13.7556 17.763119,11.6652 17.763119,8.1864 C17.763119,2.8896 14.8243155,0.9156 9.02251786,0.9156 L1.27217857,0.9156 C1.04356548,0.9156 0.889577381,1.0716 0.889577381,1.3044 L0.889577381,26.826 C0.889577381,27.0576 1.04356548,27.216 1.27217857,27.216 L5.58621429,27.216 C5.81482738,27.216 5.96763095,27.0576 5.96763095,26.826 L5.96763095,17.5464 C5.96763095,17.352 6.08252976,17.2752 6.27442262,17.2752 L8.94315476,17.2752 C9.17532143,17.3124 9.25113095,17.4288 9.5567381,18.0108 L13.9856726,26.8656 C14.0982024,27.1356 14.2131012,27.216 14.4405298,27.216 L19.5197679,27.216 C19.823006,27.216 19.823006,27.018 19.7116607,26.826 L14.6324226,17.352 L14.6324226,17.352 Z" id="Fill-15" fill="#EE9E3F" mask="url(#mask-4)"></path>
                    <path d="M31.7002262,15.2652 L24.6380952,15.2652 C24.4852917,15.2652 24.4082976,15.1476 24.4082976,14.994 C24.4082976,11.9772 25.096506,9.6564 28.4937202,9.6564 C31.394619,9.6564 32.1207321,11.2032 32.1207321,14.1432 C32.1207321,15.1848 32.0058333,15.2652 31.7002262,15.2652 L31.7002262,15.2652 Z M28.5707143,6.1392 C22.3472262,6.1392 19.4475119,10.002 19.4475119,16.926 C19.4475119,23.4636 21.813006,27.6 29.2577381,27.6 C31.9300238,27.6 34.2978869,27.1728 35.7832798,26.4768 C35.9763571,26.4012 36.0521667,26.2872 36.0521667,26.13 L35.7832798,23.1132 C35.7086548,22.9608 35.5570357,22.9224 35.3651429,22.9224 C34.1818036,23.3076 31.9300238,23.8092 29.9838512,23.8092 C26.4326488,23.8092 24.4852917,22.7664 24.4852917,18.624 C24.4852917,18.4716 24.5255655,18.3972 24.7162738,18.3972 L35.4800417,18.3972 C36.3956786,18.3972 36.5105774,17.7372 36.5105774,15.1092 C36.5105774,9.5004 34.6769345,6.1392 28.5707143,6.1392 L28.5707143,6.1392 Z" id="Fill-17" fill="#EE9E3F" mask="url(#mask-4)"></path>
                    <path d="M47.2707917,6.1392 C44.8662083,6.1392 41.4334583,6.6024 39.3712024,6.9492 C39.1402202,6.9876 38.9897857,7.104 38.9897857,7.3356 L38.9897857,26.826 C38.9897857,27.0576 39.1402202,27.216 39.3712024,27.216 L43.6094286,27.216 C43.8356726,27.216 43.9884762,27.0576 43.9884762,26.826 L43.9884762,10.662 C43.9884762,10.4304 44.105744,10.3524 44.3710774,10.2768 C45.0190119,10.122 45.9358333,10.0452 47.0824524,10.0452 C50.1349702,10.0452 50.7852738,10.8168 50.7852738,13.7556 L50.7852738,26.826 C50.7852738,27.0576 50.9368929,27.216 51.1666905,27.216 L55.4037321,27.216 C55.6323452,27.216 55.7839643,27.0576 55.7839643,26.826 L55.7839643,13.524 C55.7839643,7.878 53.9894107,6.1392 47.2707917,6.1392" id="Fill-18" fill="#EE9E3F" mask="url(#mask-4)"></path>
                    <path d="M68.3031964,6.5232 L65.095506,6.5232 C64.9438869,6.5232 64.8692619,6.4476 64.8692619,6.2928 L64.8692619,1.458 C64.8692619,1.2252 64.7140893,1.0716 64.4831071,1.0716 L60.2484345,1.0716 C60.0198214,1.0716 59.8670179,1.2252 59.8670179,1.458 L59.8670179,6.2928 C59.8670179,6.4476 59.7912083,6.5232 59.6372202,6.5232 L57.0075774,6.5232 C56.7777798,6.5232 56.6226071,6.6768 56.6226071,6.9096 L56.6226071,10.0452 C56.6226071,10.2768 56.7777798,10.4304 57.0075774,10.4304 L59.6372202,10.4304 C59.7912083,10.4304 59.8670179,10.5096 59.8670179,10.662 L59.8670179,23.3448 C59.8670179,26.1684 61.4317738,27.6 64.4831071,27.6 C65.5562857,27.6 66.737256,27.4452 67.5794524,27.2508 C67.7689762,27.216 67.9596845,26.9784 67.9596845,26.7468 L68.0733988,24.1596 C68.0733988,23.8488 67.8826905,23.7744 67.6919821,23.7744 L66.5086429,23.7744 C65.2885833,23.7744 64.8692619,23.4216 64.8692619,22.1472 L64.8692619,10.662 C64.8692619,10.5096 64.9438869,10.4304 65.095506,10.4304 L68.3031964,10.4304 C68.5318095,10.4304 68.6869821,10.2768 68.6869821,10.0452 L68.6869821,6.9096 C68.6869821,6.6768 68.5318095,6.5232 68.3031964,6.5232" id="Fill-19" fill="#EE9E3F" mask="url(#mask-4)"></path>
                    <path d="M80.5961845,23.8884 C80.5961845,24.0048 80.5570952,24.0804 80.3272976,24.1596 C79.8321667,24.2736 78.8028155,24.3492 77.9238988,24.3492 C74.9081012,24.3492 74.2210774,24.0432 74.2210774,21.2964 C74.2210774,18.51 75.0585357,18.0108 77.809,18.0108 L80.3652024,18.0108 C80.5215595,18.0108 80.5961845,18.0888 80.5961845,18.2412 L80.5961845,23.8884 L80.5961845,23.8884 Z M77.885994,6.1392 C75.3286071,6.1392 72.6563214,6.4476 71.2017262,6.8736 C70.9778512,6.9492 70.9375774,7.1796 70.9778512,7.4136 L71.2431845,10.3908 C71.2799048,10.6212 71.5866964,10.6212 71.8188631,10.5852 C73.0377381,10.3908 75.174619,10.2 76.5486667,10.2 C79.5265595,10.2 80.5961845,10.7376 80.5961845,13.0608 L80.5961845,14.6064 C80.5961845,14.7624 80.5215595,14.7996 80.3652024,14.8392 L75.8616429,15.4224 C70.2552917,16.1148 69.3716369,17.8932 69.3716369,21.8388 C69.3716369,26.2872 71.4350774,27.6 78.3053155,27.6 C80.940881,27.6 83.6510714,27.3288 84.9860298,26.904 C85.4065357,26.7468 85.4799762,26.5548 85.4799762,26.3232 L85.4799762,12.2856 C85.4799762,7.7616 82.6193512,6.1392 77.885994,6.1392 L77.885994,6.1392 Z" id="Fill-20" fill="#EE9E3F" mask="url(#mask-4)"></path>
                </g>
                <path d="M153.225262,20.1332 C151.16419,20.6024 149.450185,21.8408 148.96453,23.096 C148.940839,23.1716 148.915964,23.2688 148.889905,23.3792 C148.821202,24.89 148.270399,25.1336 145.825542,25.1336 L140.621929,25.1336 C139.519137,25.1336 139.024006,24.746 139.024006,23.5172 L139.024006,0.6188 C139.024006,0.3476 138.872387,0.1952 138.641405,0.1952 L134.419762,0.1952 C134.192333,0.1952 134.03953,0.3476 134.03953,0.6188 L134.03953,24.2096 C134.03953,27.794 135.637452,28.9136 138.796577,28.9136 L146.782637,28.9136 C149.990327,28.8896 152.213679,28.3148 153.251321,26.2964 L153.265536,26.2964 C153.700256,25.4468 153.9265,24.3452 153.9265,22.922 C153.9265,21.8468 153.735792,20.972 153.225262,20.1332" id="Fill-22" fill="#EE9E3F"></path>
                <path d="M198.244274,8.5256 L198.233613,8.522 L197.672149,9.92 L197.413923,9.92 L196.83469,8.4704 L196.821661,8.474 L196.821661,9.92 L196.352589,9.92 L196.352589,7.6028 L196.931821,7.6028 L197.541851,9.2372 L198.155435,7.6028 L198.710976,7.6028 L198.710976,9.92 L198.244274,9.92 L198.244274,8.5256 L198.244274,8.5256 Z M196.037506,8.0108 L195.453536,8.0108 L195.453536,9.9116 L194.958405,9.9116 L194.958405,8.0108 L194.381542,8.0108 L194.381542,7.6028 L196.037506,7.6028 L196.037506,8.0108 L196.037506,8.0108 Z" id="Fill-23" fill="#9FA4A5"></path>
            </g>
        </g>
    </g>
</svg>