<?xml version="1.0" encoding="UTF-8" standalone="no"?>
<svg width="240px" height="55px" viewBox="0 0 240 55" version="1.1" xmlns="http://www.w3.org/2000/svg" xmlns:xlink="http://www.w3.org/1999/xlink">
    <!-- Generator: Sketch 3.8.3 (29802) - http://www.bohemiancoding.com/sketch -->
    <title>Artboard 1</title>
    <desc>Created with Sketch.</desc>
    <defs>
        <polygon id="path-1" points="0.25464881 9.19586172 12.0908393 9.19586172 12.0908393 0.271566562 0.25464881 0.271566562 0.25464881 9.19586172"></polygon>
    </defs>
    <g id="Page-1" stroke="none" stroke-width="1" fill="none" fill-rule="evenodd">
        <g id="Artboard-1">
            <g id="CR_logo_subline_TM">
                <path d="M234.019411,22.4104749 L232.575452,14.0744836 C232.562649,14.0094378 232.310845,12.7200838 231.333506,11.5189032 C230.874,10.9190356 230.313488,10.478169 229.704607,10.1630579 C229.16828,9.87107413 228.536637,9.65280905 227.79403,9.54006285 C227.448333,9.47935336 226.24053,9.37238902 226.24053,9.37238902 C223.595881,9.19315148 220.312476,9.32035232 216.728899,9.7193004 L216.728899,9.72941865 C214.565095,9.95202011 212.311667,10.2714677 210.036899,10.6790885 C203.760304,11.8022141 197.965976,13.4847343 194.029589,15.3031281 L193.543054,15.5315114 C191.804613,16.3149529 189.878387,17.7835444 189.785917,20.4518711 C192.050726,21.1167846 193.868833,22.4321569 194.836214,24.2042958 C195.002661,24.5295252 195.075214,24.9183551 195.075214,24.9183551 C195.099399,25.0585651 195.105089,25.1481839 195.105089,25.2392481 C195.105089,26.391283 194.184655,27.3279437 193.05225,27.3279437 C192.261274,27.3279437 191.532893,26.8610588 191.19431,26.1339904 C191.027863,25.8593522 190.793131,25.6049505 190.505762,25.3707853 L191.329458,30.129253 C191.362179,30.3070451 192.204369,34.6260918 196.904702,34.8140021 C201.274988,35.1869318 207.406476,34.7504017 213.762738,33.6128215 C219.973893,32.5012596 225.810899,30.814403 229.764357,28.9887819 C232.097452,28.1041579 234.693732,26.2684185 234.019411,22.4104749" id="Fill-1" fill="#9FA4A5"></path>
                <path d="M196.830726,29.4123029 C196.733988,29.4267575 196.658589,29.3747208 196.64294,29.2764292 L196.288708,27.2209793 C196.268792,27.1212423 196.321429,27.0446327 196.418167,27.0301781 L198.428327,26.6688121 C198.523643,26.652912 198.601887,26.7092851 198.617536,26.8032402 L198.970345,28.8601356 C198.991685,28.9584272 198.936202,29.0350367 198.839464,29.0523823 L196.830726,29.4123029" id="Fill-2" fill="#FFFFFF"></path>
                <path d="M204.599649,28.1923312 C201.946464,28.6678889 200.714476,27.2426613 200.208024,24.3329421 C199.715798,21.482487 200.330369,19.5441197 202.99778,19.0642256 C203.760304,18.928352 204.424667,18.9110064 204.804506,18.9789432 C204.857143,18.987616 204.889863,18.9933979 204.904089,19.0801257 L205.083339,20.5053533 C205.09472,20.5559445 205.05631,20.6137631 204.968107,20.5964175 C204.628101,20.5689537 204.127339,20.5776265 203.677792,20.6600179 C202.333417,20.8985195 202.043202,21.644379 202.445804,23.9484487 C202.814262,26.08629 203.319292,26.6731485 204.694964,26.4274196 C205.114637,26.35081 205.589792,26.2019272 205.899923,26.0588262 C205.959673,26.0284715 206.042185,25.9981167 206.070637,26.0761718 L206.412065,27.4768265 C206.443363,27.556327 206.414911,27.5924636 206.372232,27.6358275 C205.928375,27.8671018 205.264012,28.0723577 204.599649,28.1923312" id="Fill-3" fill="#FFFFFF"></path>
                <path d="M209.937315,25.1669749 C210.191964,25.3707853 210.486446,25.4387221 211.179262,25.3100758 C211.92756,25.1814295 212.179363,25.0152012 212.333006,24.7376721 C212.5905,24.2996965 212.567738,23.2025892 212.35719,22.0028541 C212.148065,20.7857733 211.829399,19.9098221 211.435333,19.5715835 C211.199179,19.3619912 210.908964,19.3099545 210.193387,19.4371553 C209.469274,19.570138 209.210357,19.7190208 209.03822,20.0008863 C208.787839,20.4533166 208.7665,21.3899773 208.977048,22.6056126 C209.183327,23.8067932 209.54894,24.8446364 209.937315,25.1669749 L209.937315,25.1669749 Z M214.128351,25.5644775 C213.636125,26.3016642 212.826655,26.7179578 211.466631,26.9593503 C210.105185,27.2065247 209.254458,27.0879966 208.561643,26.5661841 C207.813345,25.9851076 207.109149,24.6509442 206.826048,23.0074516 C206.537256,21.3495043 206.749226,19.9705316 207.27844,19.1798627 C207.753595,18.4340033 208.588673,18.062519 209.915976,17.8254629 C211.290226,17.5782885 212.13953,17.6664618 212.847994,18.1853834 C213.587756,18.7621236 214.225089,19.9705316 214.513881,21.6313698 C214.799827,23.2777534 214.626268,24.7636904 214.128351,25.5644775 L214.128351,25.5644775 Z" id="Fill-4" fill="#FFFFFF"></path>
                <path d="M224.300077,24.3213784 C224.319994,24.41967 224.263089,24.4962796 224.167774,24.5179615 L222.369583,24.8359636 C222.27,24.8562001 222.197446,24.8012725 222.178952,24.70009 L221.111988,18.5481949 C220.979685,17.7763171 220.42344,17.6592345 219.564179,17.8124537 C219.145929,17.8847269 218.615292,18.0148187 218.350685,18.1290103 C218.242565,18.1853834 218.205577,18.2417565 218.222649,18.3400481 L219.413381,25.1987751 C219.427607,25.2985121 219.37497,25.3707853 219.278232,25.3910218 L217.482887,25.7148058 C217.384726,25.727815 217.307905,25.6757783 217.287988,25.5774867 L215.852565,17.2906412 C215.834071,17.1894587 215.890976,17.1287492 215.984869,17.0955035 C216.639274,16.8252018 218.238298,16.3351894 219.340827,16.1386063 C220.212893,15.9781598 221.184542,15.891432 221.762125,16.1299335 C221.827565,16.1328245 221.893006,16.1198153 221.964137,16.0750059 C222.80206,15.6008937 223.743833,15.3493829 224.504935,15.2106184 C226.997363,14.7668609 227.998887,15.7237581 228.327512,17.6288798 L229.331881,23.4194088 C229.350375,23.5191459 229.297738,23.5957555 229.202423,23.6145465 L227.387161,23.9397759 C227.290423,23.955676 227.210756,23.9036393 227.19653,23.8039023 L226.217768,18.162256 C226.027137,17.0608124 225.489387,16.7500376 224.421,16.9408389 C224.032625,17.0102212 223.537554,17.1345311 223.257298,17.2530591 C223.147756,17.3036504 223.089429,17.3629144 223.109345,17.4640969 L224.300077,24.3213784" id="Fill-5" fill="#FFFFFF"></path>
                <path d="M176.904101,23.6246647 C177.898512,22.6056126 179.160375,21.7672434 180.59153,21.1442484 C180.339726,20.9722382 180.076542,20.797337 179.797708,20.6137631 C176.224089,18.3631755 175.451607,17.8572631 175.451607,16.2455707 C175.451607,14.2710668 176.403339,14.0860473 179.257113,14.0860473 C180.567345,14.0860473 182.510643,14.3158761 183.872089,14.5457049 C184.054185,14.5919598 184.187911,14.4546407 184.187911,14.3606855 L184.459631,10.2685767 C184.459631,10.038748 184.370006,9.99393857 184.233435,9.94479279 C182.832155,9.66870916 180.342571,9.44032583 178.16881,9.44032583 C172.284857,9.44032583 169.569077,11.1878919 169.569077,16.3857807 C169.569077,19.4646191 170.836631,20.7525276 174.50272,23.2387258 C175.158548,23.694047 175.720482,24.0872132 176.198482,24.4413519 C176.41472,24.1609319 176.645185,23.8877392 176.904101,23.6246647" id="Fill-6" fill="#EE9E3F"></path>
                <path d="M186.043006,32.8207071 C185.619065,32.8973167 185.189435,32.9493534 184.765494,32.9768173 C184.213518,33.81085 183.516435,34.4222813 182.74822,34.8732661 C183.172161,34.9180755 183.607482,34.9426484 184.055607,34.9426484 C184.820976,34.9426484 185.604839,34.8732661 186.375899,34.735947 C188.169821,34.4136085 189.822905,33.7429132 191.184351,32.8120344 C190.753298,32.163021 190.478732,31.5313532 190.310863,31.0543501 C189.144315,31.9100648 187.66906,32.5287234 186.043006,32.8207071" id="Fill-7" fill="#9FA4A5"></path>
                <path d="M193.874524,24.7477903 C193.875946,24.7477903 193.871679,24.7506812 193.874524,24.7477903 C192.659607,22.529003 189.775958,21.0777571 186.279161,21.0777571 C185.509524,21.0777571 184.728506,21.1471393 183.953179,21.2916857 C178.895768,22.1951008 175.374786,25.6699964 175.758893,29.2966657 C177.107536,29.2764292 177.51725,29.1795832 177.650976,28.9006086 C177.561351,26.431756 180.470607,23.8848483 184.288917,23.2025892 C184.954702,23.0826157 185.623333,23.0190153 186.279161,23.0190153 C188.990673,23.0190153 191.256905,24.0742041 192.157423,25.6324143 C192.306798,25.9807712 192.643958,26.2207182 193.040869,26.2207182 C193.572929,26.2207182 194.00256,25.7827426 194.00256,25.242139 C194.00256,25.064347 193.958458,24.8937822 193.874524,24.7477903" id="Fill-8" fill="#9FA4A5"></path>
                <path d="M18.3859286,29.4542213 C18.3389821,29.1709104 18.0174702,29.1709104 17.7884286,29.2171652 C16.6417976,29.5438401 14.6714702,29.8242601 12.9757083,29.8242601 C7.70205952,29.8242601 6.51275,27.0301781 6.51275,19.0179708 C6.51275,10.4463688 7.70205952,7.65084132 12.9757083,7.65084132 C14.7625179,7.65084132 16.688744,7.92981588 17.8823214,8.30130015 C18.1113631,8.39525531 18.3389821,8.21023591 18.3389821,8.0700259 L18.5680238,3.64546038 C18.5680238,3.36359489 18.4314524,3.3187855 18.2479345,3.22338487 C17.0088333,2.76083637 14.7184167,2.43271603 12.0552738,2.43271603 C3.11980357,2.43271603 0,8.81443989 0,18.9717159 C0,29.3111204 3.11980357,35.0423854 12.0552738,35.0423854 C14.7184167,35.0423854 16.9192083,34.6651193 18.5225,34.1563159 C18.6619167,34.1115066 18.7543869,33.8744505 18.7074405,33.5954759 L18.3859286,29.4542213" id="Fill-9" fill="#E0683E"></path>
                <path d="M33.2480298,30.5672287 C33.2480298,30.7088841 33.2010833,30.8028393 32.9265179,30.8939035 C32.3304405,31.0341136 31.0913393,31.1295142 30.0386012,31.1295142 C26.4180357,31.1295142 25.591494,30.7536935 25.591494,27.4450263 C25.591494,24.0929951 26.600131,23.4873457 29.9020298,23.4873457 L32.9720417,23.4873457 C33.1569821,23.4873457 33.2480298,23.5841917 33.2480298,23.7692111 L33.2480298,30.5672287 L33.2480298,30.5672287 Z M29.9916548,9.18881508 C26.9216429,9.18881508 23.709369,9.55740842 21.969506,10.0705482 C21.6963631,10.1659488 21.647994,10.4463688 21.6963631,10.7238979 L22.0164524,14.3115397 C22.0619762,14.5919598 22.4304345,14.5919598 22.7021548,14.5442595 C24.1702976,14.3115397 26.738125,14.07882 28.3897857,14.07882 C31.9648274,14.07882 33.2480298,14.7307243 33.2480298,17.5276973 L33.2480298,19.3880096 C33.2480298,19.573029 33.1569821,19.6207293 32.9720417,19.6684296 L27.5618214,20.3651433 C20.8242976,21.2064034 19.7701369,23.3456902 19.7701369,28.1041579 C19.7701369,33.4581568 22.245494,35.0423854 30.4981071,35.0423854 C33.6634345,35.0423854 36.9155417,34.7142651 38.520256,34.2025708 C39.0252857,34.013215 39.1163333,33.7833862 39.1163333,33.5015207 L39.1163333,16.5910366 C39.1163333,11.144528 35.6778631,9.18881508 29.9916548,9.18881508 L29.9916548,9.18881508 Z" id="Fill-10" fill="#E0683E"></path>
                <path d="M54.6243036,9.37383449 C53.3880476,9.23217901 52.4220893,9.18881508 50.9098452,9.18881508 C47.9749821,9.18881508 44.584881,9.65280905 42.2930417,10.1659488 C42.015631,10.2107582 41.8321131,10.3524137 41.8321131,10.6313882 L41.8321131,34.1115066 C41.8321131,34.3904811 42.015631,34.5726096 42.2930417,34.5726096 L47.3362262,34.5726096 C47.6534702,34.6203099 47.8384107,34.4352905 47.8384107,34.1115066 L47.8384107,14.8738253 C47.8384107,14.6367692 47.8825119,14.4994501 48.1599226,14.3563491 C48.8911488,14.07882 50.0833036,13.9848649 50.8187976,13.9848649 C52.1005774,13.9848649 53.2472083,14.07882 54.3483155,14.2638394 C54.5773571,14.3115397 54.6726726,14.1713297 54.6726726,14.0325652 L54.8974464,9.74676422 C54.8974464,9.51115357 54.8519226,9.41864387 54.6243036,9.37383449" id="Fill-11" fill="#E0683E"></path>
                <path d="M65.217125,18.4368942 L62.9693869,18.4368942 C62.7403452,18.3920848 62.6492976,18.2966842 62.6492976,18.0683009 L62.6492976,7.72166906 C62.6492976,7.53520419 62.7403452,7.44269449 63.2467976,7.44269449 L65.217125,7.44269449 C69.3412976,7.44269449 70.4438274,8.51522883 70.4438274,12.7085201 C70.4438274,16.8512201 69.1577798,18.4368942 65.217125,18.4368942 L65.217125,18.4368942 Z M73.055756,22.7226952 C72.5521488,21.884326 72.3245298,21.3740772 72.3245298,20.9043014 C72.3245298,20.7207274 72.4596786,20.535708 72.7826131,20.2538425 C75.9436726,18.3920848 76.8157381,15.8740864 76.8157381,11.6836861 C76.8157381,5.3019622 73.2862202,2.92417381 66.3182321,2.92417381 L57.0100357,2.92417381 C56.7354702,2.92417381 56.5505298,3.11208414 56.5505298,3.39250417 L56.5505298,34.1360794 C56.5505298,34.4136085 56.7354702,34.6044098 57.0100357,34.6044098 L62.1912143,34.6044098 C62.4657798,34.6044098 62.6492976,34.4136085 62.6492976,34.1360794 L62.6492976,22.9568603 C62.6492976,22.7226952 62.7872917,22.6316309 63.017756,22.6316309 L66.2229167,22.6316309 C66.50175,22.6749948 66.5927976,22.8166503 66.9598333,23.5162549 L72.279006,34.1823343 C72.4141548,34.5090092 72.5521488,34.6044098 72.8252917,34.6044098 L78.9254821,34.6044098 C79.2896726,34.6044098 79.2896726,34.3659082 79.1559464,34.1360794 L73.055756,22.7226952 L73.055756,22.7226952 Z" id="Fill-12" fill="#EE9E3F"></path>
                <path d="M93.5542738,20.2090331 L85.072619,20.2090331 C84.8891012,20.2090331 84.796631,20.0673777 84.796631,19.8823583 C84.796631,16.2499071 85.6231726,13.4543796 89.703244,13.4543796 C93.1872381,13.4543796 94.0593036,15.3175827 94.0593036,18.8575242 C94.0593036,20.1136325 93.9213095,20.2090331 93.5542738,20.2090331 L93.5542738,20.2090331 Z M89.7957143,9.2162789 C82.3212738,9.2162789 78.8387024,13.8706732 78.8387024,22.2110009 C78.8387024,30.0844437 81.6796726,35.0669583 90.6208333,35.0669583 C93.8302619,35.0669583 96.6740774,34.5538186 98.4580417,33.7154494 C98.6899286,33.6229397 98.7809762,33.4870661 98.7809762,33.2977103 L98.4580417,29.6623682 C98.3684167,29.4787942 98.1863214,29.4325394 97.9558571,29.4325394 C96.5346607,29.8965333 93.8302619,30.5007373 91.4928988,30.5007373 C87.2278869,30.5007373 84.8891012,29.244629 84.8891012,24.2563325 C84.8891012,24.0727586 84.9374702,23.9816944 85.1665119,23.9816944 L98.0938512,23.9816944 C99.1935357,23.9816944 99.3315298,23.1881346 99.3315298,20.0211228 C99.3315298,13.2664692 97.1293155,9.2162789 89.7957143,9.2162789 L89.7957143,9.2162789 Z" id="Fill-13" fill="#EE9E3F"></path>
                <path d="M112.254601,9.2162789 C109.366685,9.2162789 105.243935,9.77422803 102.767155,10.1919671 C102.489744,10.238222 102.309071,10.378432 102.309071,10.658852 L102.309071,34.1360794 C102.309071,34.4136085 102.489744,34.6044098 102.767155,34.6044098 L107.857286,34.6044098 C108.129006,34.6044098 108.312524,34.4136085 108.312524,34.1360794 L108.312524,14.6656784 C108.312524,14.3867039 108.453363,14.2913032 108.77203,14.200239 C109.550202,14.0137741 110.65131,13.9212644 112.028405,13.9212644 C115.694494,13.9212644 116.475512,14.8506978 116.475512,18.3920848 L116.475512,34.1360794 C116.475512,34.4136085 116.657607,34.6044098 116.933595,34.6044098 L122.022304,34.6044098 C122.296869,34.6044098 122.478964,34.4136085 122.478964,34.1360794 L122.478964,18.1116648 C122.478964,11.3107563 120.323696,9.2162789 112.254601,9.2162789" id="Fill-14" fill="#EE9E3F"></path>
                <path d="M137.514625,9.6788274 L133.662173,9.6788274 C133.480077,9.6788274 133.390452,9.58776317 133.390452,9.4012983 L133.390452,3.57896903 C133.390452,3.298549 133.204089,3.11208414 132.926679,3.11208414 L127.840815,3.11208414 C127.56625,3.11208414 127.382732,3.298549 127.382732,3.57896903 L127.382732,9.4012983 C127.382732,9.58776317 127.291685,9.6788274 127.106744,9.6788274 L123.94853,9.6788274 C123.672542,9.6788274 123.486179,9.8638468 123.486179,10.1457123 L123.486179,13.9212644 C123.486179,14.200239 123.672542,14.3867039 123.94853,14.3867039 L127.106744,14.3867039 C127.291685,14.3867039 127.382732,14.4821045 127.382732,14.6656784 L127.382732,29.9413427 C127.382732,33.3425197 129.262012,35.0669583 132.926679,35.0669583 C134.215571,35.0669583 135.633923,34.8804934 136.645405,34.6463283 C136.873024,34.6044098 137.102065,34.3196534 137.102065,34.0392334 L137.238637,30.9228128 C137.238637,30.5484376 137.009595,30.4602643 136.780554,30.4602643 L135.359357,30.4602643 C133.89406,30.4602643 133.390452,30.0338524 133.390452,28.4987696 L133.390452,14.6656784 C133.390452,14.4821045 133.480077,14.3867039 133.662173,14.3867039 L137.514625,14.3867039 C137.78919,14.3867039 137.975554,14.200239 137.975554,13.9212644 L137.975554,10.1457123 C137.975554,9.8638468 137.78919,9.6788274 137.514625,9.6788274" id="Fill-15" fill="#EE9E3F"></path>
                <path d="M152.278565,30.5975834 C152.278565,30.736348 152.231619,30.8288577 151.955631,30.9228128 C151.360976,31.0615774 150.12472,31.1511961 149.069137,31.1511961 C145.447149,31.1511961 144.62203,30.7826028 144.62203,27.4739356 C144.62203,24.117568 145.627821,23.5162549 148.931143,23.5162549 L152.001155,23.5162549 C152.18894,23.5162549 152.278565,23.6116556 152.278565,23.7952295 L152.278565,30.5975834 L152.278565,30.5975834 Z M149.023613,9.2162789 C145.952179,9.2162789 142.74275,9.58776317 140.995774,10.1009029 C140.726899,10.1919671 140.67853,10.4709417 140.726899,10.7528072 L141.045565,14.3375581 C141.089667,14.6150872 141.458125,14.6150872 141.736958,14.5731687 C143.200833,14.3375581 145.767238,14.1077293 147.417476,14.1077293 C150.99394,14.1077293 152.278565,14.7567427 152.278565,17.5551611 L152.278565,19.4154734 C152.278565,19.6033837 152.18894,19.6481931 152.001155,19.6973389 L146.592357,20.3983889 C139.859101,21.2324217 138.797827,23.3745995 138.797827,28.1287308 C138.797827,33.4870661 141.27603,35.0669583 149.52722,35.0669583 C152.692548,35.0669583 155.9475,34.7417289 157.550792,34.2285891 C158.055821,34.0392334 158.144024,33.8079591 158.144024,33.53043 L158.144024,16.6199459 C158.144024,11.1705463 154.708399,9.2162789 149.023613,9.2162789 L149.023613,9.2162789 Z" id="Fill-16" fill="#EE9E3F"></path>
                <path d="M184.02431,24.3878698 C181.548952,24.9516008 179.490423,26.4447651 178.907149,27.9552751 C178.878696,28.0463393 178.848821,28.1634219 178.817524,28.2978501 C178.735012,30.1176893 178.073494,30.4111185 175.137208,30.4111185 L168.887643,30.4111185 C167.563185,30.4111185 166.96853,29.9427882 166.96853,28.462633 L166.96853,0.880287618 C166.96853,0.553612738 166.786435,0.370038802 166.509024,0.370038802 L161.43881,0.370038802 C161.165667,0.370038802 160.982149,0.553612738 160.982149,0.880287618 L160.982149,29.2966657 C160.982149,33.6142669 162.901262,34.9628849 166.695387,34.9628849 L176.286685,34.9628849 C180.139137,34.9354211 182.809393,34.2415983 184.055607,31.8103278 L184.072679,31.8103278 C184.59478,30.7869392 184.8665,29.4600032 184.8665,27.7471283 C184.8665,26.450547 184.637458,25.3968037 184.02431,24.3878698" id="Fill-17" fill="#EE9E3F"></path>
                <path d="M2.6958631,47.7451237 L5.1612619,47.7451237 L3.94065476,44.1198998 L3.92216071,44.1198998 L2.6958631,47.7451237 L2.6958631,47.7451237 Z M5.54252381,48.8855948 L2.30891071,48.8855948 L1.61751786,50.9236991 L0.19489881,50.9236991 L3.27771429,42.3983521 L4.6078631,42.3983521 L7.65084524,50.9236991 L6.22822619,50.9236991 L5.54252381,48.8855948 L5.54252381,48.8855948 Z" id="Fill-18" fill="#9FA4A5"></path>
                <path d="M9.530125,44.5882301 L9.60979167,45.4728541 L9.62259524,45.4771905 C9.82602976,45.1591884 10.079256,44.9105686 10.3822738,44.7356675 C10.6867143,44.5593208 11.0338333,44.4711475 11.4250536,44.4711475 C12.0908393,44.4711475 12.6001369,44.6677307 12.9557917,45.0594514 C13.3114464,45.4526176 13.4878512,46.079949 13.4878512,46.9414456 L13.4878512,50.9236991 L12.087994,50.9236991 L12.087994,46.9544548 C12.087994,46.465888 11.9941012,46.1247584 11.8034702,45.9296208 C11.6128393,45.7330377 11.3169345,45.6361916 10.9129107,45.6361916 C10.6326548,45.6361916 10.3879643,45.6969011 10.1774167,45.8183201 C9.96829167,45.939739 9.79330952,46.1088583 9.65104762,46.3271234 L9.65104762,50.9236991 L8.24976786,50.9236991 L8.24976786,44.5882301 L9.530125,44.5882301" id="Fill-19" fill="#9FA4A5"></path>
                <polyline id="Fill-20" fill="#9FA4A5" points="23.1360536 47.088883 19.4642738 47.088883 19.4642738 49.7875644 23.7235952 49.7875644 23.7235952 50.9236991 18.0644167 50.9236991 18.0644167 42.3983521 23.6823393 42.3983521 23.6823393 43.5402687 19.4642738 43.5402687 19.4642738 45.9469664 23.1360536 45.9469664 23.1360536 47.088883"></polyline>
                <polyline id="Fill-21" fill="#9FA4A5" points="26.9614762 46.7607626 28.1137976 44.5882301 29.7227798 44.5882301 27.7624107 47.7205508 29.7796845 50.9236991 28.1891964 50.9236991 26.9842381 48.6991299 25.7807024 50.9236991 24.1788333 50.9236991 26.1946845 47.7205508 24.2357381 44.5882301 25.8262262 44.5882301 26.9614762 46.7607626"></polyline>
                <path d="M34.7759226,47.8434152 C34.7759226,47.1842836 34.6578452,46.6509074 34.4245357,46.2461774 C34.1898036,45.8385565 33.8284583,45.6361916 33.3405,45.6361916 C33.0445952,45.6361916 32.7956369,45.699792 32.5950476,45.8241019 C32.3930357,45.9498573 32.2308571,46.1262039 32.1070893,46.3574781 L32.1070893,49.219497 C32.2308571,49.4464349 32.3916131,49.6169996 32.5922024,49.7326367 C32.791369,49.8468284 33.0445952,49.904647 33.351881,49.904647 C33.8398393,49.904647 34.1997619,49.7311913 34.4302262,49.381389 C34.6606905,49.0315867 34.7759226,48.5603654 34.7759226,47.9662797 L34.7759226,47.8434152 L34.7759226,47.8434152 Z M36.1700893,47.9662797 C36.1700893,48.9087222 35.9609643,49.6545817 35.5412917,50.2096399 C35.1230417,50.7632526 34.5255417,51.0407817 33.7502143,51.0407817 C33.388869,51.0407817 33.0758929,50.9786268 32.8098631,50.8557623 C32.545256,50.7328979 32.3162143,50.5493239 32.1241607,50.3021496 L32.1070893,50.3079314 L32.1070893,53.3593061 L30.7072321,53.3593061 L30.7072321,44.5882301 L31.9577143,44.5882301 L32.0501845,45.3499897 C32.2493512,45.0594514 32.4869286,44.8426318 32.761494,44.693749 C33.0360595,44.5448662 33.3604167,44.4711475 33.7317202,44.4711475 C34.517006,44.4711475 35.1187738,44.7761405 35.5384464,45.3846808 C35.9595417,45.9932212 36.1700893,46.8127993 36.1700893,47.8434152 L36.1700893,47.9662797 L36.1700893,47.9662797 Z" id="Fill-22" fill="#9FA4A5"></path>
                <path d="M39.9044643,45.6130642 C39.5545,45.6130642 39.2685536,45.7503832 39.0452024,46.0250214 C38.8232738,46.301105 38.676744,46.6668075 38.6070357,47.1235741 L41.119381,47.1235741 L41.119381,46.9775822 C41.119381,46.5670704 41.0212202,46.2375046 40.8234762,45.9874393 C40.6257321,45.7373741 40.3184464,45.6130642 39.9044643,45.6130642 L39.9044643,45.6130642 Z M40.0652202,51.0407817 C39.166125,51.0407817 38.4590833,50.7502435 37.94125,50.1749488 C37.4248393,49.5967631 37.1659226,48.83934 37.1659226,47.9026792 L37.1659226,47.6685141 C37.1659226,46.7275169 37.4234167,45.9585301 37.9355595,45.3601079 C38.449125,44.7631313 39.1049524,44.4668111 39.9044643,44.4711475 C40.7651488,44.4711475 41.4138631,44.7255492 41.8520298,45.235798 C42.2901964,45.7446014 42.5092798,46.4413151 42.5092798,47.32883 L42.5092798,48.1657537 L38.5785833,48.1657537 C38.616994,48.6933481 38.7677917,49.1139781 39.0309762,49.4305348 C39.2941607,49.7470914 39.6683095,49.904647 40.152,49.904647 C40.5361071,49.904647 40.8604643,49.8598376 41.1236488,49.7673279 C41.3854107,49.6762636 41.6443274,49.5418355 41.8975536,49.3669343 L42.3072679,50.3382862 C42.0725357,50.5449876 41.7695179,50.7126614 41.3967917,50.8441986 C41.0240655,50.9757358 40.5802083,51.0407817 40.0652202,51.0407817 L40.0652202,51.0407817 Z" id="Fill-23" fill="#9FA4A5"></path>
                <path d="M44.7797798,47.9662797 C44.7797798,48.5632563 44.8878988,49.0315867 45.1055595,49.3727162 C45.3217976,49.7109548 45.6746071,49.8815195 46.1625655,49.8815195 C46.4627381,49.8815195 46.713119,49.8179191 46.9137083,49.6936092 C47.1171429,49.5678538 47.2835893,49.3857254 47.4187381,49.1443329 L47.4187381,46.3806056 C47.2835893,46.1406585 47.1171429,45.9585301 46.9137083,45.8298838 C46.713119,45.7012375 46.4655833,45.6361916 46.1739464,45.6361916 C45.6859881,45.6361916 45.331756,45.8385565 45.11125,46.2403956 C44.8893214,46.6407891 44.7797798,47.1756108 44.7797798,47.8434152 L44.7797798,47.9662797 L44.7797798,47.9662797 Z M43.3799226,47.8434152 C43.3799226,46.8127993 43.5890476,45.9932212 44.0072976,45.3846808 C44.4255476,44.7761405 45.0287381,44.4711475 45.816869,44.4711475 C46.1625655,44.4711475 46.4655833,44.5376389 46.7245,44.6706216 C46.9834167,44.8036043 47.2096131,44.995851 47.4016667,45.2502527 L47.4187381,45.2430254 L47.4187381,41.7898117 L48.8185952,41.7898117 L48.8185952,50.9236991 L47.609369,50.9236991 L47.4941369,50.1503759 C47.2907024,50.4481415 47.0502798,50.6692975 46.7757143,50.8167348 C46.5011488,50.9656176 46.1782143,51.0407817 45.8054881,51.0407817 C45.0244702,51.0407817 44.4255476,50.7632526 44.0072976,50.2096399 C43.5890476,49.6545817 43.3799226,48.9087222 43.3799226,47.9662797 L43.3799226,47.8434152 L43.3799226,47.8434152 Z" id="Fill-24" fill="#9FA4A5"></path>
                <path d="M50.4147738,50.9222537 L51.814631,50.9222537 L51.814631,44.5882301 L50.4147738,44.5882301 L50.4147738,50.9222537 Z M50.4147738,43.0372472 L51.814631,43.0372472 L51.814631,41.7898117 L50.4147738,41.7898117 L50.4147738,43.0372472 Z" id="Fill-25" fill="#9FA4A5"></path>
                <path d="M55.4864107,49.8988651 C55.8093452,49.8988651 56.0981369,49.8280374 56.3542083,49.6892728 C56.6088571,49.5476173 56.8023333,49.3727162 56.9317917,49.160233 L56.9317917,48.0833622 L55.8904345,48.0833622 C55.4707619,48.0833622 55.14925,48.1845447 54.9244762,48.3854642 C54.6997024,48.5863837 54.5873155,48.8292217 54.5873155,49.1139781 C54.5873155,49.359707 54.6627143,49.5533992 54.8120893,49.6921638 C54.9614643,49.8294828 55.1862381,49.8988651 55.4864107,49.8988651 L55.4864107,49.8988651 Z M57.1352262,50.9236991 C57.0925476,50.7907164 57.0569821,50.6577338 57.0271071,50.5247511 C56.9986548,50.3932138 56.9773155,50.2558947 56.9616667,50.1156847 C56.751119,50.3888774 56.4950476,50.6114789 56.194875,50.7820437 C55.8947024,50.9540539 55.5575417,51.0407817 55.1805476,51.0407817 C54.5389464,51.0407817 54.0467202,50.8731079 53.7024464,50.5392057 C53.3581726,50.206749 53.1874583,49.7398641 53.1874583,49.138551 C53.1874583,48.5126651 53.4207679,48.032771 53.8902321,47.6974233 C54.3582738,47.3620757 55.0325952,47.1944018 55.9131964,47.1944018 L56.9317917,47.1944018 L56.9317917,46.6378982 C56.9317917,46.3025505 56.8364762,46.0409215 56.6444226,45.8559021 C56.452369,45.6708827 56.1721131,45.578373 55.8036548,45.578373 C55.4650714,45.578373 55.2004643,45.6549826 55.0069881,45.8096473 C54.8163571,45.9628665 54.719619,46.1652314 54.719619,46.4152967 L53.3197619,46.4152967 C53.3197619,45.8848114 53.554494,45.4265993 54.025381,45.0449968 C54.4962679,44.6619488 55.1179524,44.4711475 55.8904345,44.4711475 C56.631619,44.4711475 57.2234286,44.6561669 57.6672857,45.0247603 C58.1111429,45.3933536 58.3330714,45.9354026 58.3330714,46.6494619 L58.3330714,49.4652259 C58.3330714,49.7355277 58.3501429,49.9870384 58.3828631,50.2212036 C58.4141607,50.4553688 58.4710655,50.6880885 58.5521548,50.9236991 L57.1352262,50.9236991 L57.1352262,50.9236991 Z" id="Fill-26" fill="#9FA4A5"></path>
                <path d="M61.1100238,50.6013607 C61.1100238,51.0031997 61.0104405,51.4180479 60.8112738,51.8473507 C60.6106845,52.278099 60.3475,52.6351286 60.0217202,52.9184396 L59.290494,52.4631184 C59.4583631,52.1826983 59.5849762,51.8979419 59.6703333,51.6102946 C59.7542679,51.3240927 59.7969464,51.0031997 59.7969464,50.6476155 L59.7969464,49.5476173 L61.1157143,49.5476173 L61.1100238,50.6013607" id="Fill-27" fill="#9FA4A5"></path>
                <polygon id="Fill-28" fill="#9FA4A5" points="65.594119 50.9236991 66.9939762 50.9236991 66.9939762 42.3983521 65.594119 42.3983521"></polygon>
                <path d="M69.997125,44.5882301 L70.0767917,45.4728541 L70.0895952,45.4771905 C70.2930298,45.1591884 70.546256,44.9105686 70.8492738,44.7356675 C71.1537143,44.5593208 71.5008333,44.4711475 71.8920536,44.4711475 C72.5564167,44.4711475 73.0671369,44.6677307 73.4227917,45.0594514 C73.7784464,45.4526176 73.9548512,46.079949 73.9548512,46.9414456 L73.9548512,50.9236991 L72.554994,50.9236991 L72.554994,46.9544548 C72.554994,46.465888 72.4611012,46.1247584 72.2704702,45.9296208 C72.0798393,45.7330377 71.7825119,45.6361916 71.3799107,45.6361916 C71.0982321,45.6361916 70.8549643,45.6969011 70.6444167,45.8183201 C70.4352917,45.939739 70.2603095,46.1088583 70.1180476,46.3271234 L70.1180476,50.9236991 L68.7167679,50.9236991 L68.7167679,44.5882301 L69.997125,44.5882301" id="Fill-29" fill="#9FA4A5"></path>
                <path d="M77.9666369,49.904647 C78.3151786,49.904647 78.6096607,49.80491 78.8472381,49.6039904 C79.0862381,49.4016255 79.2057381,49.1443329 79.2057381,48.8277762 L80.5259286,48.8277762 C80.5259286,49.4522167 80.2783929,49.9769202 79.7833214,50.4033321 C79.2910952,50.826853 78.69075,51.0407817 77.9837083,51.0407817 C77.0462024,51.0407817 76.3377381,50.7459071 75.8597381,50.1576032 C75.3817381,49.5678538 75.1427381,48.8017579 75.1427381,47.8622062 L75.1427381,47.6555049 C75.1427381,46.7202896 75.3817381,45.9556391 75.8597381,45.3601079 C76.3377381,44.7674677 77.0447798,44.4711475 77.9780179,44.4711475 C78.7419643,44.4711475 79.3579583,44.6908581 79.8245774,45.1302792 C80.2911964,45.5697002 80.5259286,46.1449949 80.5259286,46.8604996 L79.2057381,46.8604996 C79.2057381,46.5049155 79.0933512,46.2071499 78.8671548,45.9700938 C78.6438036,45.7315922 78.3422083,45.6130642 77.9666369,45.6130642 C77.4317321,45.6130642 77.0618512,45.8038654 76.8541488,46.1840225 C76.6464464,46.5641795 76.5425952,47.0556373 76.5425952,47.6555049 L76.5425952,47.8622062 C76.5425952,48.475083 76.6436012,48.9694317 76.8484583,49.3423614 C77.0518929,49.7181821 77.424619,49.904647 77.9666369,49.904647" id="Fill-30" fill="#9FA4A5"></path>
                <polygon id="Fill-31" fill="#9FA4A5" points="81.7522262 50.9236991 83.1463929 50.9236991 83.1463929 49.5606265 81.7522262 49.5606265"></polygon>
                <path d="M94.2456667,48.1599718 C94.1603095,49.057605 93.8473333,49.7629915 93.3024702,50.2775767 C92.7604524,50.789271 92.0021964,51.0465636 91.0305476,51.0465636 C90.0347143,51.0465636 89.2437381,50.7169978 88.6561964,50.0593116 C88.0672321,49.4016255 87.7741726,48.5415744 87.7741726,47.4748219 L87.7741726,45.8530112 C87.7741726,44.7949315 88.0715,43.9348804 88.6647321,43.2714124 C89.2579643,42.6064989 90.0460952,42.2754876 91.0305476,42.2754876 C92.0221131,42.2754876 92.7832143,42.5269984 93.3152738,43.0343563 C93.8473333,43.5402687 94.1588869,44.2615552 94.2513571,45.1967705 L92.8515,45.1967705 C92.7775238,44.6041302 92.6039643,44.1589273 92.3293988,43.8611617 C92.0548333,43.5648416 91.6209345,43.4174042 91.0305476,43.4174042 C90.4458512,43.4174042 89.9891905,43.6443421 89.6605655,44.0953269 C89.3319405,44.5492026 89.1683393,45.1302792 89.1683393,45.8414475 L89.1683393,47.4748219 C89.1683393,48.1961084 89.3305179,48.7844123 89.654875,49.2339516 C89.9792321,49.6863819 90.4387381,49.9104288 91.0305476,49.9104288 C91.6095536,49.9104288 92.0391845,49.7658824 92.3180179,49.4767896 C92.5968512,49.1891423 92.7718333,48.7497212 92.8458095,48.1599718 L94.2456667,48.1599718" id="Fill-32" fill="#9FA4A5"></path>
                <path d="M96.544619,47.8217332 C96.544619,48.453401 96.6612738,48.9593135 96.896006,49.3365796 C97.1307381,49.7152912 97.5020417,49.904647 98.008494,49.904647 C98.5078333,49.904647 98.8762917,49.7138457 99.1152917,49.3336887 C99.352869,48.9535316 99.472369,48.4490647 99.472369,47.8217332 L99.472369,47.6974233 C99.472369,47.0816556 99.352869,46.5786342 99.1152917,46.1926952 C98.8762917,45.8067563 98.5035655,45.6130642 97.9971131,45.6130642 C97.4977738,45.6130642 97.1307381,45.8067563 96.896006,46.1926952 C96.6612738,46.5786342 96.544619,47.0816556 96.544619,47.6974233 L96.544619,47.8217332 L96.544619,47.8217332 Z M95.1447619,47.6974233 C95.1447619,46.7376352 95.3937202,45.9599755 95.8930595,45.3629989 C96.3923988,44.7689131 97.09375,44.4711475 97.9971131,44.4711475 C98.9075893,44.4711475 99.6132083,44.7674677 100.11397,45.3601079 C100.616155,45.9556391 100.866536,46.7332988 100.866536,47.6974233 L100.866536,47.8217332 C100.866536,48.7887487 100.617577,49.5678538 100.118238,50.1576032 C99.6174762,50.7459071 98.9147024,51.0407817 98.008494,51.0407817 C97.0980179,51.0407817 96.3923988,50.7459071 95.8930595,50.1576032 C95.3937202,49.5678538 95.1447619,48.7887487 95.1447619,47.8217332 L95.1447619,47.6974233 L95.1447619,47.6974233 Z" id="Fill-33" fill="#9FA4A5"></path>
                <path d="M103.3675,44.5882301 L103.441476,45.3904627 L103.45428,45.3904627 C103.653446,45.0941426 103.903827,44.8672047 104.205423,44.7082036 C104.507018,44.5506481 104.864095,44.4711475 105.275232,44.4711475 C105.690637,44.4711475 106.040601,44.5636572 106.326548,44.7472312 C106.612494,44.9308051 106.831577,45.2126706 106.980952,45.5957186 C107.175851,45.2401344 107.429077,44.9640508 107.737786,44.7660222 C108.047917,44.5708846 108.417798,44.4711475 108.847429,44.4711475 C109.48903,44.4711475 109.986946,44.6850762 110.342601,45.1129336 C110.698256,45.5393455 110.876083,46.204259 110.876083,47.1047831 L110.876083,50.9236991 L109.476226,50.9236991 L109.476226,47.1004467 C109.476226,46.5497249 109.385179,46.1681224 109.205929,45.9556391 C109.025256,45.7431559 108.749268,45.6361916 108.38081,45.6361916 C108.073524,45.6361916 107.818875,45.7171376 107.616863,45.8761386 C107.416274,46.0365851 107.266899,46.2591866 107.171583,46.543943 C107.171583,46.603207 107.173006,46.6537983 107.175851,46.6957167 C107.180119,46.7405261 107.182964,46.7809991 107.182964,46.8185812 L107.182964,50.9236991 L105.781685,50.9236991 L105.781685,47.1004467 C105.781685,46.5728523 105.690637,46.1984771 105.505696,45.9729847 C105.320756,45.7489378 105.04619,45.6361916 104.682,45.6361916 C104.393208,45.6361916 104.151363,45.6911192 103.955042,45.799529 C103.760143,45.9093843 103.603655,46.0683853 103.488423,46.2736412 L103.488423,50.9236991 L102.088565,50.9236991 L102.088565,44.5882301 L103.3675,44.5882301" id="Fill-34" fill="#9FA4A5"></path>
                <path d="M116.42003,47.8434152 C116.42003,47.1842836 116.301952,46.6509074 116.068643,46.2461774 C115.832488,45.8385565 115.472565,45.6361916 114.98603,45.6361916 C114.688702,45.6361916 114.441167,45.699792 114.237732,45.8241019 C114.038565,45.9498573 113.873542,46.1262039 113.752619,46.3574781 L113.752619,49.219497 C113.873542,49.4464349 114.03572,49.6169996 114.234887,49.7326367 C114.435476,49.8468284 114.688702,49.904647 114.997411,49.904647 C115.483946,49.904647 115.843869,49.7311913 116.074333,49.381389 C116.304798,49.0315867 116.42003,48.5603654 116.42003,47.9662797 L116.42003,47.8434152 L116.42003,47.8434152 Z M117.814196,47.9662797 C117.814196,48.9087222 117.606494,49.6545817 117.185399,50.2096399 C116.767149,50.7632526 116.169649,51.0407817 115.394321,51.0407817 C115.032976,51.0407817 114.72,50.9786268 114.455393,50.8557623 C114.189363,50.7328979 113.960321,50.5493239 113.768268,50.3021496 L113.752619,50.3079314 L113.752619,53.3593061 L112.351339,53.3593061 L112.351339,44.5882301 L113.601821,44.5882301 L113.692869,45.3499897 C113.893458,45.0594514 114.131036,44.8426318 114.405601,44.693749 C114.680167,44.5448662 115.004524,44.4711475 115.37725,44.4711475 C116.161113,44.4711475 116.764304,44.7761405 117.183976,45.3846808 C117.603649,45.9932212 117.814196,46.8127993 117.814196,47.8434152 L117.814196,47.9662797 L117.814196,47.9662797 Z" id="Fill-35" fill="#9FA4A5"></path>
                <path d="M121.138857,49.8988651 C121.460369,49.8988651 121.749161,49.8280374 122.005232,49.6892728 C122.261304,49.5476173 122.456202,49.3727162 122.585661,49.160233 L122.585661,48.0833622 L121.541458,48.0833622 C121.124631,48.0833622 120.801696,48.1845447 120.576923,48.3854642 C120.352149,48.5863837 120.241185,48.8292217 120.241185,49.1139781 C120.241185,49.359707 120.316583,49.5533992 120.465958,49.6921638 C120.616756,49.8294828 120.838685,49.8988651 121.138857,49.8988651 L121.138857,49.8988651 Z M122.78625,50.9236991 C122.744994,50.7907164 122.708006,50.6577338 122.680976,50.5247511 C122.652524,50.3932138 122.631185,50.2558947 122.614113,50.1156847 C122.402143,50.3888774 122.147494,50.6114789 121.847321,50.7820437 C121.547149,50.9540539 121.211411,51.0407817 120.832994,51.0407817 C120.191393,51.0407817 119.699167,50.8731079 119.356315,50.5392057 C119.012042,50.206749 118.839905,49.7398641 118.839905,49.138551 C118.839905,48.5126651 119.074637,48.032771 119.544101,47.6974233 C120.01072,47.3620757 120.686464,47.1944018 121.567065,47.1944018 L122.585661,47.1944018 L122.585661,46.6378982 C122.585661,46.3025505 122.488923,46.0409215 122.296869,45.8559021 C122.104815,45.6708827 121.82456,45.578373 121.454679,45.578373 C121.11894,45.578373 120.852911,45.6549826 120.660857,45.8096473 C120.468804,45.9628665 120.372065,46.1652314 120.372065,46.4152967 L118.972208,46.4152967 C118.972208,45.8848114 119.20694,45.4265993 119.676405,45.0449968 C120.148714,44.6619488 120.771821,44.4711475 121.541458,44.4711475 C122.282643,44.4711475 122.877298,44.6561669 123.319732,45.0247603 C123.765012,45.3933536 123.98694,45.9354026 123.98694,46.6494619 L123.98694,49.4652259 C123.98694,49.7355277 124.002589,49.9870384 124.033887,50.2212036 C124.066607,50.4553688 124.124935,50.6880885 124.206024,50.9236991 L122.78625,50.9236991 L122.78625,50.9236991 Z" id="Fill-36" fill="#9FA4A5"></path>
                <g id="Group-40" transform="translate(125.190476, 44.199581)">
                    <mask id="mask-2" fill="white">
                        <use xlink:href="#path-1"></use>
                    </mask>
                    <g id="Clip-38"></g>
                    <path d="M1.53216071,0.388649151 L1.61325,1.27327316 L1.62463095,1.27760955 C1.82664286,0.959607459 2.08271429,0.710987639 2.38573214,0.536086486 C2.68875,0.35973987 3.03586905,0.271566562 3.42708929,0.271566562 C4.09429762,0.271566562 4.60217262,0.468149675 4.95782738,0.859870438 C5.31348214,1.25303666 5.49130952,1.88036807 5.49130952,2.74186466 L5.49130952,6.72411816 L4.09145238,6.72411816 L4.09145238,2.75487383 C4.09145238,2.26630698 3.99755952,1.92517746 3.80550595,1.73003981 C3.61629762,1.53345669 3.31897024,1.4366106 2.91636905,1.4366106 C2.6361131,1.4366106 2.39142262,1.49732009 2.17945238,1.61873907 C1.97175,1.74015806 1.79676786,1.90927735 1.65450595,2.12754243 L1.65450595,6.72411816 L0.25464881,6.72411816 L0.25464881,0.388649151 L1.53216071,0.388649151" id="Fill-37" fill="#9FA4A5" mask="url(#mask-2)"></path>
                    <path d="M9.01798214,4.18299233 L9.16166667,4.84356941 L9.1787381,4.84356941 L10.557256,0.388649151 L12.0908393,0.388649151 L9.51020833,7.68390631 C9.34802976,8.12477285 9.11756548,8.50203897 8.82308333,8.81425921 C8.52575595,9.12647945 8.09754762,9.28258957 7.53703571,9.28258957 C7.42322619,9.28258957 7.29803571,9.26958039 7.16715476,9.24789843 C7.03342857,9.22332554 6.90539286,9.19586172 6.78447024,9.16550698 L6.93953571,8.06406336 C6.99217262,8.06839975 7.06188095,8.0741816 7.15008333,8.08140893 C7.23970833,8.09008171 7.30941667,8.0944181 7.35920833,8.0944181 C7.62239286,8.0944181 7.81729167,8.03081768 7.9396369,7.90650777 C8.06482738,7.7807524 8.19570833,7.55381454 8.33939286,7.2213578 L8.56985714,6.64750857 L6.303625,0.388649151 L7.83151786,0.388649151 L9.01798214,4.18299233" id="Fill-39" fill="#9FA4A5" mask="url(#mask-2)"></path>
                </g>
                <path d="M238.092369,10.4044504 L238.079565,10.400114 L237.405244,12.0840796 L237.095113,12.0840796 L236.399452,10.337959 L236.383804,10.3422954 L236.383804,12.0840796 L235.820446,12.0840796 L235.820446,9.2928885 L236.516107,9.2928885 L237.248756,11.263056 L237.985673,9.2928885 L238.652881,9.2928885 L238.652881,12.0840796 L238.092369,12.0840796 L238.092369,10.4044504 L238.092369,10.4044504 Z M235.44203,9.78434628 L234.740679,9.78434628 L234.740679,12.0754068 L234.146024,12.0754068 L234.146024,9.78434628 L233.453208,9.78434628 L233.453208,9.2928885 L235.44203,9.2928885 L235.44203,9.78434628 L235.44203,9.78434628 Z" id="Fill-41" fill="#9FA4A5"></path>
            </g>
        </g>
    </g>
</svg>